<svg width="24" height="24" viewBox="0 0 24 24" fill="none" xmlns="http://www.w3.org/2000/svg">
<path d="M18.974 15.022C18.974 15.0151 18.9767 15.0085 18.9816 15.0036C18.9865 14.9987 18.9931 14.996 19 14.996C19.0069 14.996 19.0135 14.9987 19.0184 15.0036C19.0233 15.0085 19.026 15.0151 19.026 15.022C19.1751 15.7491 19.5344 16.4165 20.0593 16.9413C20.5843 17.4661 21.2518 17.8252 21.979 17.974C22.007 17.98 22.007 18.02 21.979 18.026C21.2517 18.1749 20.5841 18.5341 20.0591 19.0591C19.5341 19.584 19.1749 20.2516 19.026 20.979C19.02 21.007 18.98 21.007 18.974 20.979C18.8251 20.2516 18.4659 19.584 17.9409 19.0591C17.4159 18.5341 16.7483 18.1749 16.021 18.026C15.993 18.02 15.993 17.98 16.021 17.974C16.7483 17.8251 17.4159 17.4659 17.9409 16.9409C18.4659 16.4159 18.8251 15.7483 18.974 15.021V15.022Z" stroke="#FFAE00" stroke-width="1.5"/>
<path d="M14.647 12.6726C15.388 12.1526 15.759 11.8926 15.907 11.5156C16.0291 11.1825 16.0291 10.8168 15.907 10.4836C15.759 10.1066 15.388 9.84663 14.647 9.32663C14.1482 8.97336 13.6379 8.63651 13.117 8.31663C12.6827 8.05762 12.2412 7.81085 11.793 7.57663C11.005 7.16263 10.611 6.95563 10.23 7.00663C9.89361 7.06246 9.59187 7.2463 9.388 7.51963C9.154 7.84263 9.124 8.30663 9.066 9.23463C9.027 9.84463 9 10.4656 9 10.9996C9 11.5336 9.027 12.1546 9.066 12.7646C9.124 13.6926 9.154 14.1566 9.388 14.4796C9.583 14.7476 9.913 14.9486 10.23 14.9916C10.611 15.0436 11.005 14.8366 11.793 14.4216C12.259 14.1766 12.723 13.9216 13.117 13.6826C13.6379 13.3628 14.1482 13.0259 14.647 12.6726Z" stroke="#FFAE00" stroke-width="1.5" stroke-linecap="round"/>
<path d="M21.872 14.836C22 13.923 22 12.728 22 11C22 8.2 22 6.8 21.455 5.73C20.9756 4.78923 20.2108 4.02436 19.27 3.545C18.2 3 16.8 3 14 3H10C7.2 3 5.8 3 4.73 3.545C3.78923 4.02436 3.02436 4.78923 2.545 5.73C2 6.8 2 8.2 2 11C2 13.8 2 15.2 2.545 16.27C3.02436 17.2108 3.78923 17.9756 4.73 18.455C5.8 19 7.2 19 10 19H13.426" stroke="#FFAE00" stroke-width="1.5" stroke-linecap="round" stroke-linejoin="round"/>
</svg>
