<svg width="24" height="24" viewBox="0 0 24 24" fill="none" xmlns="http://www.w3.org/2000/svg">
<path fill-rule="evenodd" clip-rule="evenodd" d="M4.80078 2.39863C4.80078 1.92124 4.99042 1.46341 5.32799 1.12584C5.66555 0.788275 6.12339 0.598633 6.60078 0.598633H17.4008C17.8782 0.598633 18.336 0.788275 18.6736 1.12584C19.0111 1.46341 19.2008 1.92124 19.2008 2.39863V21.5986C19.2008 22.076 19.0111 22.5339 18.6736 22.8714C18.336 23.209 17.8782 23.3986 17.4008 23.3986H6.60078C6.12339 23.3986 5.66555 23.209 5.32799 22.8714C4.99042 22.5339 4.80078 22.076 4.80078 21.5986V2.39863ZM6.60078 1.79863C6.44165 1.79863 6.28904 1.86185 6.17652 1.97437C6.064 2.08689 6.00078 2.2395 6.00078 2.39863V21.5986C6.00078 21.7578 6.064 21.9104 6.17652 22.0229C6.28904 22.1354 6.44165 22.1986 6.60078 22.1986H17.4008C17.5599 22.1986 17.7125 22.1354 17.825 22.0229C17.9376 21.9104 18.0008 21.7578 18.0008 21.5986V2.39863C18.0008 2.2395 17.9376 2.08689 17.825 1.97437C17.7125 1.86185 17.5599 1.79863 17.4008 1.79863H6.60078Z" fill="#FFAE00"/>
<path fill-rule="evenodd" clip-rule="evenodd" d="M9 3.59856C9 3.2803 9.12643 2.97508 9.35147 2.75003C9.57652 2.52499 9.88174 2.39856 10.2 2.39856H13.8C14.1183 2.39856 14.4235 2.52499 14.6485 2.75003C14.8736 2.97508 15 3.2803 15 3.59856C15 3.91682 14.8736 4.22204 14.6485 4.44709C14.4235 4.67213 14.1183 4.79856 13.8 4.79856H10.2C9.88174 4.79856 9.57652 4.67213 9.35147 4.44709C9.12643 4.22204 9 3.91682 9 3.59856Z" fill="#FFAE00"/>
</svg>
